<svg width="512" height="512" viewBox="0 0 512 512" fill="none" xmlns="http://www.w3.org/2000/svg">
  <rect x="16" y="16" width="480" height="480" rx="112" fill="#111111"/>
  <path d="M298 124V288C298 320 272 346 240 346C208 346 182 320 182 288C182 256 208 230 240 230C248 230 256 232 263 236V188C255 186 248 185 240 185C183 185 136 232 136 288C136 345 183 392 240 392C297 392 344 345 344 288V205C365 222 392 232 420 232V186C388 186 358 170 338 144C325 127 320 112 319 100H298V124Z" fill="#25F4EE"/>
  <path d="M318 104V268C318 300 292 326 260 326C228 326 202 300 202 268C202 236 228 210 260 210C268 210 276 212 283 216V168C275 166 268 165 260 165C203 165 156 212 156 268C156 325 203 372 260 372C317 372 364 325 364 268V185C385 202 412 212 440 212V166C408 166 378 150 358 124C345 107 340 92 339 80H318V104Z" fill="#FE2C55" fill-opacity="0.95"/>
  <path d="M308 114V278C308 310 282 336 250 336C218 336 192 310 192 278C192 246 218 220 250 220C258 220 266 222 273 226V178C265 176 258 175 250 175C193 175 146 222 146 278C146 335 193 382 250 382C307 382 354 335 354 278V195C375 212 402 222 430 222V176C398 176 368 160 348 134C335 117 330 102 329 90H308V114Z" fill="white"/>
</svg>
