<svg width="512" height="512" viewBox="0 0 512 512" fill="none" xmlns="http://www.w3.org/2000/svg">
  <circle cx="256" cy="256" r="248" fill="#25D366"/>
  <path d="M154 386L171 321C157 296 150 267 151 238C152 168 210 112 280 114C350 116 406 172 406 242C405 312 348 369 278 370C250 370 223 363 200 350L154 386Z" fill="white"/>
  <path d="M236 189C232 180 228 179 223 179C218 179 212 179 207 179C202 179 194 181 188 188C182 194 166 209 166 240C166 271 188 300 191 304C194 308 230 364 285 388C331 407 341 405 352 404C363 402 388 389 393 374C398 359 398 347 397 344C396 341 392 339 386 336C380 333 352 319 346 317C340 315 336 314 331 320C326 327 313 343 309 347C305 351 301 352 295 349C289 346 269 340 246 319C228 303 216 282 212 276C208 270 212 267 216 263C219 260 222 255 225 252C228 249 229 246 231 241C233 236 232 231 230 227C228 223 214 194 236 189Z" fill="#25D366"/>
</svg>
